<svg width="326" height="326" viewBox="0 0 326 326" fill="none" xmlns="http://www.w3.org/2000/svg">
<g filter="url(#filter0_d)">
<circle cx="163" cy="160" r="157" fill="white"/>
<circle cx="163" cy="160" r="156.5" stroke="#E4E4E4"/>
</g>
<path d="M162.246 120.15V136.991V229.529V230.014C162.241 238.025 159.135 245.724 153.58 251.496C148.024 257.268 140.449 260.666 132.444 260.977C124.438 261.287 116.623 258.488 110.637 253.164C104.65 247.84 100.956 240.405 100.33 232.418C96.634 231.878 93.0914 230.572 89.9296 228.583C86.7677 226.593 84.0564 223.966 81.9695 220.868C79.8825 217.769 78.4659 214.269 77.8106 210.592C77.1553 206.914 77.2756 203.141 78.164 199.512C72.4454 195.277 67.8162 189.743 64.6586 183.366C61.5011 176.989 59.9057 169.952 60.0043 162.837C60.1029 155.721 61.8926 148.731 65.2257 142.444C68.5587 136.157 73.3395 130.753 79.1732 126.678C77.9944 123.627 77.3912 120.384 77.3942 117.113C77.3959 110.672 79.7137 104.447 83.9245 99.5736C88.1352 94.7002 93.9581 91.5036 100.33 90.5673C100.956 82.5805 104.65 75.1461 110.636 69.8222C116.622 64.4983 124.437 61.6981 132.442 62.0085C140.448 62.319 148.022 65.7159 153.578 71.4875C159.134 77.259 162.24 84.9571 162.246 92.9683V97.0831V102.526V114.707V120.15Z" fill="#58A5EF"/>
<path d="M107.585 135.917C107.585 135.195 107.298 134.503 106.788 133.993C106.277 133.482 105.585 133.195 104.863 133.195C96.8436 133.207 89.1555 136.398 83.4854 142.069C77.8152 147.741 74.6259 155.43 74.6169 163.45C74.6169 163.807 74.6872 164.161 74.824 164.491C74.9608 164.821 75.1612 165.121 75.4139 165.374C75.6666 165.627 75.9666 165.827 76.2968 165.964C76.627 166.101 76.9809 166.171 77.3383 166.171C77.6956 166.171 78.0495 166.101 78.3797 165.964C78.7099 165.827 79.0099 165.627 79.2626 165.374C79.5153 165.121 79.7158 164.821 79.8525 164.491C79.9893 164.161 80.0597 163.807 80.0597 163.45C80.0671 156.873 82.6827 150.567 87.3328 145.916C91.9829 141.264 98.2879 138.647 104.865 138.638C105.586 138.638 106.278 138.351 106.788 137.841C107.298 137.33 107.585 136.638 107.585 135.917Z" fill="white"/>
<path d="M131.241 77.7719C127.054 77.7769 123.039 79.4424 120.079 82.4032C117.118 85.364 115.452 89.3783 115.447 93.5654C115.447 94.2872 115.734 94.9794 116.244 95.4898C116.755 96.0001 117.447 96.2868 118.169 96.2868C118.89 96.2868 119.583 96.0001 120.093 95.4898C120.603 94.9794 120.89 94.2872 120.89 93.5654C120.89 90.8201 121.981 88.1871 123.922 86.2458C125.863 84.3046 128.496 83.214 131.242 83.214C133.987 83.214 136.62 84.3046 138.561 86.2458C140.502 88.1871 141.593 90.8201 141.593 93.5654C141.593 94.2872 141.88 94.9794 142.39 95.4898C142.901 96.0001 143.593 96.2868 144.314 96.2868C145.036 96.2868 145.728 96.0001 146.239 95.4898C146.749 94.9794 147.036 94.2872 147.036 93.5654C147.031 89.378 145.365 85.3635 142.404 82.4026C139.443 79.4418 135.428 77.7765 131.241 77.7719Z" fill="white"/>
<path d="M115.791 117.557H116.957C120.507 117.561 123.91 118.973 126.42 121.483C128.93 123.993 130.341 127.396 130.345 130.945V139.742C130.341 143.292 128.93 146.695 126.42 149.205C123.91 151.715 120.507 153.126 116.957 153.13C116.236 153.13 115.543 153.417 115.033 153.927C114.523 154.438 114.236 155.13 114.236 155.852C114.236 156.573 114.523 157.266 115.033 157.776C115.543 158.286 116.236 158.573 116.957 158.573C121.95 158.567 126.736 156.581 130.266 153.051C133.796 149.521 135.782 144.735 135.788 139.742V130.945C135.782 125.953 133.796 121.167 130.266 117.636C126.736 114.106 121.95 112.12 116.957 112.115H115.791C115.069 112.115 114.377 112.401 113.867 112.912C113.356 113.422 113.07 114.114 113.07 114.836C113.07 115.558 113.356 116.25 113.867 116.76C114.377 117.271 115.069 117.557 115.791 117.557Z" fill="white"/>
<path d="M133.088 185.981C133.81 185.981 134.502 185.695 135.013 185.184C135.523 184.674 135.81 183.982 135.81 183.26C135.81 182.538 135.523 181.846 135.013 181.336C134.502 180.825 133.81 180.539 133.088 180.539H117.537C113.363 180.534 109.361 178.874 106.409 175.922C103.457 172.97 101.797 168.968 101.792 164.793C101.792 164.072 101.505 163.379 100.995 162.869C100.485 162.359 99.7924 162.072 99.0706 162.072C98.3489 162.072 97.6567 162.359 97.1463 162.869C96.6359 163.379 96.3492 164.072 96.3492 164.793C96.3558 170.411 98.5902 175.796 102.562 179.768C106.534 183.74 111.92 185.975 117.537 185.981H133.088Z" fill="white"/>
<path d="M143.002 218.25C137.848 218.244 132.907 216.194 129.263 212.55C125.619 208.906 123.569 203.965 123.563 198.811C123.563 198.089 123.277 197.397 122.766 196.887C122.256 196.376 121.564 196.09 120.842 196.09C120.12 196.09 119.428 196.376 118.918 196.887C118.407 197.397 118.12 198.089 118.12 198.811C118.128 205.408 120.752 211.732 125.416 216.397C130.081 221.061 136.405 223.685 143.002 223.692C143.724 223.692 144.416 223.406 144.926 222.895C145.437 222.385 145.723 221.693 145.723 220.971C145.723 220.249 145.437 219.557 144.926 219.047C144.416 218.536 143.724 218.25 143.002 218.25Z" fill="white"/>
<path d="M104.389 212.584C102.208 212.255 100.246 211.075 98.9343 209.301C97.6225 207.528 97.0675 205.307 97.3911 203.125C97.4492 202.769 97.4361 202.405 97.3526 202.055C97.269 201.704 97.1167 201.374 96.9043 201.083C96.692 200.791 96.424 200.545 96.1158 200.358C95.8076 200.172 95.4653 200.048 95.1089 199.994C94.7525 199.941 94.389 199.959 94.0396 200.047C93.6902 200.135 93.3617 200.292 93.0733 200.508C92.7849 200.724 92.5423 200.995 92.3596 201.306C92.1769 201.617 92.0577 201.961 92.0089 202.318C91.4731 205.927 92.3907 209.602 94.5606 212.536C96.7304 215.47 99.9753 217.423 103.583 217.968C103.718 217.988 103.854 217.997 103.989 217.998C104.676 217.998 105.338 217.738 105.841 217.27C106.345 216.802 106.653 216.162 106.703 215.477C106.754 214.791 106.543 214.112 106.114 213.576C105.685 213.04 105.069 212.685 104.389 212.584Z" fill="white"/>
<path d="M131.922 241.324C128.83 241.321 125.865 240.091 123.678 237.904C121.492 235.718 120.262 232.753 120.259 229.661C120.259 228.939 119.972 228.247 119.462 227.737C118.951 227.226 118.259 226.939 117.537 226.939C116.816 226.939 116.123 227.226 115.613 227.737C115.103 228.247 114.816 228.939 114.816 229.661C114.821 234.196 116.625 238.544 119.832 241.751C123.039 244.958 127.387 246.762 131.922 246.767C132.644 246.767 133.336 246.48 133.846 245.97C134.357 245.459 134.643 244.767 134.643 244.046C134.643 243.324 134.357 242.632 133.846 242.121C133.336 241.611 132.644 241.324 131.922 241.324Z" fill="white"/>
<path d="M164.483 119.165V136.006V228.543V229.029C164.488 237.04 167.594 244.739 173.149 250.511C178.705 256.283 186.28 259.681 194.285 259.991C202.291 260.302 210.106 257.502 216.092 252.178C222.079 246.854 225.773 239.42 226.399 231.433C230.095 230.893 233.638 229.586 236.799 227.597C239.961 225.608 242.673 222.98 244.759 219.882C246.846 216.784 248.263 213.284 248.918 209.607C249.574 205.929 249.453 202.155 248.565 198.527C254.284 194.292 258.913 188.758 262.07 182.38C265.228 176.003 266.823 168.967 266.725 161.851C266.626 154.736 264.836 147.746 261.503 141.459C258.17 135.172 253.389 129.768 247.556 125.693C248.735 122.642 249.338 119.398 249.335 116.127C249.333 109.687 247.015 103.462 242.804 98.5884C238.594 93.715 232.771 90.5184 226.399 89.582C225.773 81.5953 222.079 74.1609 216.093 68.837C210.107 63.513 202.292 60.7129 194.287 61.0233C186.281 61.3337 178.707 64.7307 173.151 70.5022C167.595 76.2738 164.489 83.9718 164.483 91.9831V96.0979V101.541V113.722V119.165Z" fill="#D73964"/>
<path d="M219.144 134.932C219.144 134.21 219.431 133.518 219.941 133.007C220.452 132.497 221.144 132.21 221.866 132.21C229.885 132.221 237.573 135.413 243.244 141.084C248.914 146.756 252.103 154.445 252.112 162.465C252.112 162.822 252.042 163.176 251.905 163.506C251.768 163.836 251.568 164.136 251.315 164.389C251.062 164.642 250.762 164.842 250.432 164.979C250.102 165.116 249.748 165.186 249.391 165.186C249.033 165.186 248.679 165.116 248.349 164.979C248.019 164.842 247.719 164.642 247.466 164.389C247.214 164.136 247.013 163.836 246.876 163.506C246.74 163.176 246.669 162.822 246.669 162.465C246.662 155.887 244.046 149.582 239.396 144.931C234.746 140.279 228.441 137.662 221.864 137.653C221.142 137.653 220.451 137.366 219.941 136.855C219.431 136.345 219.144 135.653 219.144 134.932Z" fill="white"/>
<path d="M195.488 76.7867C199.675 76.7916 203.69 78.4572 206.65 81.418C209.611 84.3787 211.277 88.393 211.282 92.5802C211.282 93.302 210.995 93.9942 210.485 94.5045C209.974 95.0149 209.282 95.3016 208.56 95.3016C207.838 95.3016 207.146 95.0149 206.636 94.5045C206.126 93.9942 205.839 93.302 205.839 92.5802C205.839 89.8348 204.748 87.2019 202.807 85.2606C200.866 83.3193 198.233 82.2287 195.487 82.2287C192.742 82.2287 190.109 83.3193 188.168 85.2606C186.226 87.2019 185.136 89.8348 185.136 92.5802C185.136 93.302 184.849 93.9942 184.339 94.5045C183.828 95.0149 183.136 95.3016 182.414 95.3016C181.693 95.3016 181 95.0149 180.49 94.5045C179.98 93.9942 179.693 93.302 179.693 92.5802C179.698 88.3927 181.364 84.3782 184.325 81.4174C187.286 78.4566 191.301 76.7912 195.488 76.7867Z" fill="white"/>
<path d="M210.938 116.572H209.772C206.222 116.576 202.819 117.988 200.309 120.497C197.799 123.007 196.388 126.41 196.384 129.96V138.757C196.388 142.307 197.799 145.71 200.309 148.22C202.819 150.73 206.222 152.141 209.772 152.145C210.493 152.145 211.186 152.432 211.696 152.942C212.206 153.452 212.493 154.145 212.493 154.866C212.493 155.588 212.206 156.28 211.696 156.791C211.186 157.301 210.493 157.588 209.772 157.588C204.779 157.582 199.993 155.596 196.463 152.066C192.933 148.536 190.947 143.75 190.941 138.757V129.96C190.947 124.968 192.933 120.181 196.463 116.651C199.993 113.121 204.779 111.135 209.772 111.129H210.938C211.66 111.129 212.352 111.416 212.862 111.926C213.373 112.437 213.659 113.129 213.659 113.851C213.659 114.573 213.373 115.265 212.862 115.775C212.352 116.285 211.66 116.572 210.938 116.572Z" fill="white"/>
<path d="M193.641 184.996C192.919 184.996 192.227 184.709 191.716 184.199C191.206 183.689 190.919 182.997 190.919 182.275C190.919 181.553 191.206 180.861 191.716 180.35C192.227 179.84 192.919 179.553 193.641 179.553H209.192C213.366 179.549 217.368 177.889 220.32 174.937C223.272 171.985 224.932 167.983 224.937 163.808C224.937 163.086 225.224 162.394 225.734 161.884C226.244 161.373 226.937 161.087 227.658 161.087C228.38 161.087 229.072 161.373 229.583 161.884C230.093 162.394 230.38 163.086 230.38 163.808C230.373 169.425 228.139 174.811 224.167 178.783C220.194 182.755 214.809 184.99 209.192 184.996H193.641Z" fill="white"/>
<path d="M183.727 217.264C188.881 217.259 193.822 215.209 197.466 211.565C201.11 207.92 203.16 202.979 203.166 197.826C203.166 197.104 203.452 196.412 203.963 195.901C204.473 195.391 205.165 195.104 205.887 195.104C206.609 195.104 207.301 195.391 207.811 195.901C208.322 196.412 208.608 197.104 208.608 197.826C208.601 204.422 205.977 210.747 201.313 215.411C196.648 220.076 190.324 222.7 183.727 222.707C183.005 222.707 182.313 222.42 181.803 221.91C181.292 221.4 181.006 220.708 181.006 219.986C181.006 219.264 181.292 218.572 181.803 218.061C182.313 217.551 183.005 217.264 183.727 217.264Z" fill="white"/>
<path d="M222.34 211.599C224.521 211.27 226.483 210.089 227.795 208.316C229.106 206.543 229.661 204.322 229.338 202.14C229.28 201.784 229.293 201.42 229.376 201.07C229.46 200.719 229.612 200.389 229.825 200.097C230.037 199.806 230.305 199.56 230.613 199.373C230.921 199.186 231.264 199.063 231.62 199.009C231.976 198.956 232.34 198.974 232.689 199.062C233.039 199.15 233.367 199.307 233.656 199.523C233.944 199.739 234.187 200.01 234.369 200.321C234.552 200.632 234.671 200.975 234.72 201.332C235.256 204.942 234.338 208.617 232.168 211.551C229.999 214.485 226.754 216.438 223.145 216.983C223.011 217.002 222.875 217.012 222.74 217.012C222.053 217.012 221.391 216.752 220.888 216.285C220.384 215.817 220.076 215.177 220.026 214.491C219.975 213.806 220.186 213.127 220.615 212.591C221.044 212.054 221.66 211.7 222.34 211.599Z" fill="white"/>
<path d="M194.807 240.339C197.899 240.336 200.864 239.106 203.05 236.919C205.237 234.733 206.467 231.768 206.47 228.676C206.47 227.954 206.757 227.262 207.267 226.751C207.778 226.241 208.47 225.954 209.192 225.954C209.913 225.954 210.606 226.241 211.116 226.751C211.626 227.262 211.913 227.954 211.913 228.676C211.908 233.211 210.104 237.559 206.897 240.766C203.69 243.973 199.342 245.777 194.807 245.782C194.085 245.782 193.393 245.495 192.883 244.985C192.372 244.474 192.086 243.782 192.086 243.06C192.086 242.339 192.372 241.646 192.883 241.136C193.393 240.626 194.085 240.339 194.807 240.339Z" fill="white"/>
<defs>
<filter id="filter0_d" x="0" y="0" width="326" height="326" filterUnits="userSpaceOnUse" color-interpolation-filters="sRGB">
<feFlood flood-opacity="0" result="BackgroundImageFix"/>
<feColorMatrix in="SourceAlpha" type="matrix" values="0 0 0 0 0 0 0 0 0 0 0 0 0 0 0 0 0 0 127 0"/>
<feOffset dy="3"/>
<feGaussianBlur stdDeviation="3"/>
<feColorMatrix type="matrix" values="0 0 0 0 0 0 0 0 0 0 0 0 0 0 0 0 0 0 0.08 0"/>
<feBlend mode="normal" in2="BackgroundImageFix" result="effect1_dropShadow"/>
<feBlend mode="normal" in="SourceGraphic" in2="effect1_dropShadow" result="shape"/>
</filter>
</defs>
</svg>
