<svg width="207" height="200" viewBox="0 0 207 200" fill="none" xmlns="http://www.w3.org/2000/svg">
<path d="M102.246 59.1498V75.9914V168.529V169.014C102.241 177.025 99.1354 184.724 93.5795 190.496C88.0237 196.268 80.4493 199.666 72.4438 199.977C64.4383 200.287 56.6233 197.488 50.6366 192.164C44.6499 186.84 40.9564 179.405 40.3302 171.418C36.634 170.878 33.0914 169.572 29.9296 167.583C26.7677 165.593 24.0564 162.966 21.9695 159.868C19.8825 156.769 18.4659 153.269 17.8106 149.592C17.1553 145.914 17.2756 142.141 18.164 138.512C12.4454 134.277 7.81618 128.743 4.65862 122.366C1.50106 115.989 -0.0942887 108.952 0.00430735 101.837C0.102903 94.7212 1.89261 87.7314 5.22566 81.4442C8.55871 75.1571 13.3395 69.7529 19.1732 65.678C17.9944 62.6269 17.3912 59.3836 17.3942 56.1127C17.3959 49.6721 19.7137 43.447 23.9245 38.5736C28.1352 33.7002 33.9581 30.5036 40.3302 29.5673C40.9564 21.5805 44.6497 14.1461 50.636 8.8222C56.6223 3.49827 64.437 0.698101 72.4423 1.00854C80.4475 1.31898 88.0219 4.71593 93.5779 10.4875C99.134 16.259 102.24 23.9571 102.246 31.9683V36.0831V41.5259V53.7069V59.1498Z" fill="#58A5EF"/>
<path d="M47.5848 74.9168C47.5848 74.1951 47.2981 73.5029 46.7877 72.9925C46.2773 72.4822 45.5851 72.1954 44.8634 72.1954C36.8436 72.2065 29.1555 75.3979 23.4854 81.0695C17.8152 86.7411 14.6259 94.4299 14.6169 102.45C14.6169 102.807 14.6872 103.161 14.824 103.491C14.9608 103.821 15.1612 104.121 15.4139 104.374C15.6666 104.627 15.9666 104.827 16.2968 104.964C16.627 105.101 16.9809 105.171 17.3383 105.171C17.6956 105.171 18.0495 105.101 18.3797 104.964C18.7099 104.827 19.0099 104.627 19.2626 104.374C19.5153 104.121 19.7158 103.821 19.8525 103.491C19.9893 103.161 20.0597 102.807 20.0597 102.45C20.0671 95.8727 22.6827 89.567 27.3328 84.9157C31.9829 80.2645 38.2879 77.6473 44.8649 77.6383C45.5864 77.6378 46.2782 77.3509 46.7883 76.8406C47.2983 76.3303 47.5848 75.6383 47.5848 74.9168Z" fill="white"/>
<path d="M71.2408 16.7719C67.0537 16.7769 63.0394 18.4424 60.0786 21.4032C57.1178 24.364 55.4523 28.3783 55.4473 32.5654C55.4473 33.2872 55.734 33.9794 56.2444 34.4898C56.7548 35.0001 57.447 35.2868 58.1687 35.2868C58.8905 35.2868 59.5827 35.0001 60.0931 34.4898C60.6034 33.9794 60.8901 33.2872 60.8901 32.5654C60.8901 29.8201 61.9807 27.1871 63.922 25.2458C65.8633 23.3046 68.4962 22.214 71.2416 22.214C73.987 22.214 76.6199 23.3046 78.5612 25.2458C80.5025 27.1871 81.5931 29.8201 81.5931 32.5654C81.5931 33.2872 81.8798 33.9794 82.3902 34.4898C82.9005 35.0001 83.5927 35.2868 84.3145 35.2868C85.0363 35.2868 85.7285 35.0001 86.2388 34.4898C86.7492 33.9794 87.0359 33.2872 87.0359 32.5654C87.031 28.378 85.3652 24.3635 82.4041 21.4026C79.443 18.4418 75.4283 16.7765 71.2408 16.7719Z" fill="white"/>
<path d="M55.791 56.5574H56.9573C60.5068 56.5611 63.9099 57.9728 66.4198 60.4827C68.9297 62.9926 70.3414 66.3957 70.3451 69.9452V78.7424C70.3414 82.2919 68.9297 85.695 66.4198 88.2049C63.9099 90.7148 60.5068 92.1264 56.9573 92.1301C56.2355 92.1301 55.5433 92.4169 55.033 92.9272C54.5226 93.4376 54.2359 94.1298 54.2359 94.8515C54.2359 95.5733 54.5226 96.2655 55.033 96.7759C55.5433 97.2862 56.2355 97.573 56.9573 97.573C61.9497 97.5672 66.736 95.5814 70.2662 92.0512C73.7963 88.5211 75.7821 83.7348 75.7879 78.7424V69.9452C75.7821 64.9528 73.7963 60.1665 70.2662 56.6363C66.736 53.1062 61.9497 51.1204 56.9573 51.1146H55.791C55.0692 51.1146 54.377 51.4013 53.8666 51.9117C53.3563 52.4221 53.0695 53.1142 53.0695 53.836C53.0695 54.5578 53.3563 55.25 53.8666 55.7603C54.377 56.2707 55.0692 56.5574 55.791 56.5574Z" fill="white"/>
<path d="M73.0882 124.981C73.81 124.981 74.5022 124.695 75.0126 124.184C75.5229 123.674 75.8097 122.982 75.8097 122.26C75.8097 121.538 75.5229 120.846 75.0126 120.336C74.5022 119.825 73.81 119.539 73.0882 119.539H57.5373C53.3628 119.534 49.3606 117.874 46.4087 114.922C43.4569 111.97 41.7966 107.968 41.792 103.793C41.792 103.072 41.5053 102.379 40.9949 101.869C40.4846 101.359 39.7924 101.072 39.0706 101.072C38.3489 101.072 37.6567 101.359 37.1463 101.869C36.6359 102.379 36.3492 103.072 36.3492 103.793C36.3558 109.411 38.5902 114.796 42.5623 118.768C46.5345 122.74 51.9199 124.975 57.5373 124.981H73.0882Z" fill="white"/>
<path d="M83.0019 157.25C77.8483 157.244 72.9073 155.194 69.2631 151.55C65.6189 147.906 63.5691 142.965 63.5633 137.811C63.5633 137.089 63.2766 136.397 62.7662 135.887C62.2559 135.376 61.5637 135.09 60.8419 135.09C60.1201 135.09 59.4279 135.376 58.9176 135.887C58.4072 136.397 58.1205 137.089 58.1205 137.811C58.1279 144.408 60.7517 150.732 65.4163 155.397C70.0809 160.061 76.4052 162.685 83.0019 162.692C83.7237 162.692 84.4159 162.406 84.9263 161.895C85.4366 161.385 85.7234 160.693 85.7234 159.971C85.7234 159.249 85.4366 158.557 84.9263 158.047C84.4159 157.536 83.7237 157.25 83.0019 157.25Z" fill="white"/>
<path d="M44.389 151.584C42.2078 151.255 40.2462 150.075 38.9343 148.301C37.6225 146.528 37.0675 144.307 37.3911 142.125C37.4492 141.769 37.4361 141.405 37.3526 141.055C37.269 140.704 37.1167 140.374 36.9043 140.083C36.692 139.791 36.424 139.545 36.1158 139.358C35.8076 139.172 35.4653 139.048 35.1089 138.994C34.7525 138.941 34.389 138.959 34.0396 139.047C33.6902 139.135 33.3617 139.292 33.0733 139.508C32.7849 139.724 32.5423 139.995 32.3596 140.306C32.1769 140.617 32.0577 140.961 32.0089 141.318C31.4731 144.927 32.3907 148.602 34.5606 151.536C36.7304 154.47 39.9753 156.423 43.5835 156.968C43.7179 156.988 43.8535 156.997 43.9894 156.998C44.6764 156.998 45.338 156.738 45.8413 156.27C46.3447 155.802 46.6525 155.162 46.7031 154.477C46.7537 153.791 46.5433 153.112 46.114 152.576C45.6848 152.04 45.0686 151.685 44.389 151.584Z" fill="white"/>
<path d="M71.9219 180.324C68.8297 180.321 65.865 179.091 63.6784 176.904C61.4919 174.718 60.262 171.753 60.2587 168.661C60.2587 167.939 59.972 167.247 59.4617 166.737C58.9513 166.226 58.2591 165.939 57.5373 165.939C56.8156 165.939 56.1234 166.226 55.613 166.737C55.1026 167.247 54.8159 167.939 54.8159 168.661C54.8209 173.196 56.6247 177.544 59.8316 180.751C63.0385 183.958 67.3866 185.762 71.9219 185.767C72.6437 185.767 73.3359 185.48 73.8463 184.97C74.3566 184.459 74.6433 183.767 74.6433 183.046C74.6433 182.324 74.3566 181.632 73.8463 181.121C73.3359 180.611 72.6437 180.324 71.9219 180.324Z" fill="white"/>
<path d="M104.483 58.1645V75.0062V167.543V168.029C104.488 176.04 107.594 183.739 113.149 189.511C118.705 195.283 126.28 198.681 134.285 198.991C142.291 199.302 150.106 196.502 156.092 191.178C162.079 185.854 165.773 178.42 166.399 170.433C170.095 169.893 173.638 168.586 176.799 166.597C179.961 164.608 182.673 161.98 184.759 158.882C186.846 155.784 188.263 152.284 188.918 148.607C189.574 144.929 189.453 141.155 188.565 137.527C194.284 133.292 198.913 127.758 202.07 121.38C205.228 115.003 206.823 107.967 206.725 100.851C206.626 93.736 204.836 86.7462 201.503 80.459C198.17 74.1719 193.389 68.7677 187.556 64.6928C188.735 61.6416 189.338 58.3984 189.335 55.1274C189.333 48.6869 187.015 42.4618 182.804 37.5884C178.594 32.715 172.771 29.5184 166.399 28.582C165.773 20.5953 162.079 13.1609 156.093 7.83697C150.107 2.51304 142.292 -0.287129 134.287 0.0233097C126.281 0.333748 118.707 3.7307 113.151 9.50223C107.595 15.2738 104.489 22.9718 104.483 30.9831V35.0979V40.5407V52.7217V58.1645Z" fill="#D73964"/>
<path d="M159.144 73.9316C159.144 73.2098 159.431 72.5176 159.941 72.0073C160.452 71.4969 161.144 71.2102 161.866 71.2102C169.885 71.2213 177.573 74.4126 183.244 80.0842C188.914 85.7558 192.103 93.4447 192.112 101.465C192.112 101.822 192.042 102.176 191.905 102.506C191.768 102.836 191.568 103.136 191.315 103.389C191.062 103.642 190.762 103.842 190.432 103.979C190.102 104.116 189.748 104.186 189.391 104.186C189.033 104.186 188.679 104.116 188.349 103.979C188.019 103.842 187.719 103.642 187.466 103.389C187.214 103.136 187.013 102.836 186.876 102.506C186.74 102.176 186.669 101.822 186.669 101.465C186.662 94.8874 184.046 88.5818 179.396 83.9305C174.746 79.2792 168.441 76.6621 161.864 76.653C161.142 76.6526 160.451 76.3657 159.941 75.8554C159.431 75.3451 159.144 74.6531 159.144 73.9316Z" fill="white"/>
<path d="M135.488 15.7867C139.675 15.7916 143.69 17.4572 146.65 20.418C149.611 23.3787 151.277 27.393 151.282 31.5802C151.282 32.302 150.995 32.9942 150.485 33.5045C149.974 34.0149 149.282 34.3016 148.56 34.3016C147.838 34.3016 147.146 34.0149 146.636 33.5045C146.126 32.9942 145.839 32.302 145.839 31.5802C145.839 28.8348 144.748 26.2019 142.807 24.2606C140.866 22.3193 138.233 21.2287 135.487 21.2287C132.742 21.2287 130.109 22.3193 128.168 24.2606C126.226 26.2019 125.136 28.8348 125.136 31.5802C125.136 32.302 124.849 32.9942 124.339 33.5045C123.828 34.0149 123.136 34.3016 122.414 34.3016C121.693 34.3016 121 34.0149 120.49 33.5045C119.98 32.9942 119.693 32.302 119.693 31.5802C119.698 27.3927 121.364 23.3782 124.325 20.4174C127.286 17.4566 131.301 15.7912 135.488 15.7867Z" fill="white"/>
<path d="M150.938 55.5722H149.772C146.222 55.5759 142.819 56.9876 140.309 59.4975C137.799 62.0074 136.388 65.4104 136.384 68.96V77.7571C136.388 81.3066 137.799 84.7097 140.309 87.2196C142.819 89.7295 146.222 91.1412 149.772 91.1449C150.493 91.1449 151.186 91.4316 151.696 91.942C152.206 92.4524 152.493 93.1445 152.493 93.8663C152.493 94.5881 152.206 95.2803 151.696 95.7906C151.186 96.301 150.493 96.5877 149.772 96.5877C144.779 96.582 139.993 94.5962 136.463 91.066C132.933 87.5358 130.947 82.7495 130.941 77.7571V68.96C130.947 63.9676 132.933 59.1813 136.463 55.6511C139.993 52.1209 144.779 50.1351 149.772 50.1294H150.938C151.66 50.1294 152.352 50.4161 152.862 50.9265C153.373 51.4368 153.659 52.129 153.659 52.8508C153.659 53.5725 153.373 54.2647 152.862 54.7751C152.352 55.2855 151.66 55.5722 150.938 55.5722Z" fill="white"/>
<path d="M133.641 123.996C132.919 123.996 132.227 123.709 131.716 123.199C131.206 122.689 130.919 121.997 130.919 121.275C130.919 120.553 131.206 119.861 131.716 119.35C132.227 118.84 132.919 118.553 133.641 118.553H149.192C153.366 118.549 157.368 116.889 160.32 113.937C163.272 110.985 164.932 106.983 164.937 102.808C164.937 102.086 165.224 101.394 165.734 100.884C166.244 100.373 166.937 100.087 167.658 100.087C168.38 100.087 169.072 100.373 169.583 100.884C170.093 101.394 170.38 102.086 170.38 102.808C170.373 108.425 168.139 113.811 164.167 117.783C160.194 121.755 154.809 123.99 149.192 123.996H133.641Z" fill="white"/>
<path d="M123.727 156.264C128.881 156.259 133.822 154.209 137.466 150.565C141.11 146.92 143.16 141.979 143.166 136.826C143.166 136.104 143.452 135.412 143.963 134.901C144.473 134.391 145.165 134.104 145.887 134.104C146.609 134.104 147.301 134.391 147.811 134.901C148.322 135.412 148.608 136.104 148.608 136.826C148.601 143.422 145.977 149.747 141.313 154.411C136.648 159.076 130.324 161.7 123.727 161.707C123.005 161.707 122.313 161.42 121.803 160.91C121.292 160.4 121.006 159.708 121.006 158.986C121.006 158.264 121.292 157.572 121.803 157.061C122.313 156.551 123.005 156.264 123.727 156.264Z" fill="white"/>
<path d="M162.34 150.599C164.521 150.27 166.483 149.089 167.795 147.316C169.106 145.543 169.661 143.322 169.338 141.14C169.28 140.784 169.293 140.42 169.376 140.07C169.46 139.719 169.612 139.389 169.825 139.097C170.037 138.806 170.305 138.56 170.613 138.373C170.921 138.186 171.264 138.063 171.62 138.009C171.976 137.956 172.34 137.974 172.689 138.062C173.039 138.15 173.367 138.307 173.656 138.523C173.944 138.739 174.187 139.01 174.369 139.321C174.552 139.632 174.671 139.975 174.72 140.332C175.256 143.942 174.338 147.617 172.168 150.551C169.999 153.485 166.754 155.438 163.145 155.983C163.011 156.002 162.875 156.012 162.74 156.012C162.053 156.012 161.391 155.752 160.888 155.285C160.384 154.817 160.076 154.177 160.026 153.491C159.975 152.806 160.186 152.127 160.615 151.591C161.044 151.054 161.66 150.7 162.34 150.599Z" fill="white"/>
<path d="M134.807 179.339C137.899 179.336 140.864 178.106 143.05 175.919C145.237 173.733 146.467 170.768 146.47 167.676C146.47 166.954 146.757 166.262 147.267 165.751C147.778 165.241 148.47 164.954 149.192 164.954C149.913 164.954 150.606 165.241 151.116 165.751C151.626 166.262 151.913 166.954 151.913 167.676C151.908 172.211 150.104 176.559 146.897 179.766C143.69 182.973 139.342 184.777 134.807 184.782C134.085 184.782 133.393 184.495 132.883 183.985C132.372 183.474 132.086 182.782 132.086 182.06C132.086 181.339 132.372 180.646 132.883 180.136C133.393 179.626 134.085 179.339 134.807 179.339Z" fill="white"/>
</svg>
